<svg width="24" height="24" viewBox="0 0 24 24" fill="none" xmlns="http://www.w3.org/2000/svg">
<path d="M16.1124 15.7776V9.77759H10.1124V9.40319C10.1124 8.78279 10.6164 8.27759 11.238 8.27759H12.3624V6.02759H11.238C10.3431 6.02854 9.48501 6.38449 8.85217 7.01733C8.21933 7.65017 7.86338 8.50822 7.86243 9.40319V9.77759H6.36243V12.0276H7.86243V15.7776H6.36243V18.0276H11.6124V15.7776H10.1124V12.0276H13.884V15.7776H12.3624V18.0276H17.6124V15.7776H16.1124Z" fill="white"/>
<path d="M14.8824 8.36627C15.5458 8.36627 16.0836 7.82847 16.0836 7.16507C16.0836 6.50166 15.5458 5.96387 14.8824 5.96387C14.219 5.96387 13.6812 6.50166 13.6812 7.16507C13.6812 7.82847 14.219 8.36627 14.8824 8.36627Z" fill="white"/>
<path d="M4.8 2.4C4.16348 2.4 3.55303 2.65286 3.10294 3.10294C2.65286 3.55303 2.4 4.16348 2.4 4.8V19.2C2.4 19.8365 2.65286 20.447 3.10294 20.8971C3.55303 21.3471 4.16348 21.6 4.8 21.6H19.2C19.8365 21.6 20.447 21.3471 20.8971 20.8971C21.3471 20.447 21.6 19.8365 21.6 19.2V4.8C21.6 4.16348 21.3471 3.55303 20.8971 3.10294C20.447 2.65286 19.8365 2.4 19.2 2.4H4.8ZM4.8 0H19.2C20.473 0 21.6939 0.505713 22.5941 1.40589C23.4943 2.30606 24 3.52696 24 4.8V19.2C24 20.473 23.4943 21.6939 22.5941 22.5941C21.6939 23.4943 20.473 24 19.2 24H4.8C3.52696 24 2.30606 23.4943 1.40589 22.5941C0.505713 21.6939 0 20.473 0 19.2V4.8C0 3.52696 0.505713 2.30606 1.40589 1.40589C2.30606 0.505713 3.52696 0 4.8 0V0Z" fill="white"/>
</svg>
