<svg width="26" height="26" viewBox="0 0 26 26" fill="none" xmlns="http://www.w3.org/2000/svg">
<path d="M19 1H7C3.68629 1 1 3.68629 1 7V19C1 22.3137 3.68629 25 7 25H19C22.3137 25 25 22.3137 25 19V7C25 3.68629 22.3137 1 19 1Z" stroke="white" stroke-width="2" stroke-linecap="round" stroke-linejoin="round"/>
<path d="M17.8 12.2441C17.9481 13.2428 17.7775 14.2628 17.3125 15.1589C16.8475 16.0551 16.1118 16.7818 15.2099 17.2357C14.3081 17.6896 13.2861 17.8476 12.2893 17.6872C11.2925 17.5268 10.3717 17.0562 9.65778 16.3423C8.94388 15.6284 8.47326 14.7076 8.31286 13.7108C8.15246 12.714 8.31046 11.692 8.76437 10.7902C9.21828 9.88834 9.945 9.15261 10.8412 8.68761C11.7373 8.22261 12.7573 8.05202 13.756 8.20012C14.7747 8.35118 15.7178 8.82587 16.446 9.55409C17.1742 10.2823 17.6489 11.2254 17.8 12.2441Z" stroke="white" stroke-width="2" stroke-linecap="round" stroke-linejoin="round"/>
<path d="M19.6 6.3999H19.6121" stroke="white" stroke-width="2" stroke-linecap="round" stroke-linejoin="round"/>
</svg>
